<?xml version="1.0" standalone="no"?>
<!DOCTYPE svg PUBLIC "-//W3C//DTD SVG 20010904//EN"
 "http://www.w3.org/TR/2001/REC-SVG-20010904/DTD/svg10.dtd">
<svg version="1.0" xmlns="http://www.w3.org/2000/svg"
 width="256.000000pt" height="256.000000pt" viewBox="0 0 256.000000 256.000000"
 preserveAspectRatio="xMidYMid meet">
<metadata>
Created by potrace 1.14, written by Peter Selinger 2001-2017
</metadata>
<g transform="translate(0.000000,256.000000) scale(0.100000,-0.100000)"
fill="#000000" stroke="none">
<path d="M1642 2243 c-7 -10 -10 -13 -8 -7 7 14 -871 17 -880 3 -3 -5 3 -9 13
-9 11 0 5 -7 -16 -17 -29 -15 -31 -18 -15 -24 11 -4 14 -8 8 -8 -10 -1 -19
-19 -29 -59 -2 -6 1 -10 5 -7 5 3 11 1 15 -5 3 -5 1 -10 -6 -10 -7 0 -9 -3 -6
-6 9 -9 -12 -46 -23 -39 -5 3 -11 1 -15 -4 -3 -5 3 -14 12 -20 11 -6 13 -11 5
-11 -10 0 -10 -5 -1 -21 8 -15 8 -19 0 -15 -6 4 -11 0 -11 -8 0 -9 3 -16 8
-16 4 0 8 -11 8 -25 1 -16 -3 -25 -13 -25 -8 0 -11 -4 -8 -10 3 -5 0 -10 -9
-10 -15 0 -16 -16 -3 -37 4 -7 0 -16 -10 -22 -10 -6 -13 -11 -8 -11 21 0 14
-41 -8 -50 -13 -5 -16 -9 -7 -10 12 0 11 -4 -4 -15 -19 -14 -19 -15 -1 -15 18
0 18 -1 -1 -15 -12 -9 -14 -14 -6 -15 7 0 11 -4 8 -9 -4 -5 0 -12 6 -14 7 -3
4 -6 -7 -6 -17 -1 -17 -3 -5 -11 12 -8 12 -10 -5 -11 -11 0 -14 -3 -7 -6 6 -2
10 -9 6 -14 -3 -5 0 -9 5 -9 6 0 11 -4 11 -10 0 -5 -3 -9 -7 -9 -20 3 -34 -2
-28 -11 3 -5 0 -10 -7 -10 -9 0 -9 -3 2 -10 8 -5 10 -10 3 -10 -6 0 -10 -13
-9 -30 1 -16 -3 -32 -8 -34 -6 -2 0 -5 14 -6 23 -1 24 -2 8 -14 -20 -15 -24
-31 -6 -20 8 4 10 3 5 -2 -5 -5 -14 -9 -20 -9 -7 -1 -11 -7 -9 -14 1 -7 -2
-10 -7 -7 -5 4 -12 2 -16 -4 -3 -6 1 -13 10 -16 13 -6 14 -8 3 -15 -10 -7 -10
-9 2 -9 13 -1 13 -2 0 -13 -17 -13 -20 -38 -6 -48 11 -9 -1 -29 -17 -29 -16 0
-20 -49 -6 -66 7 -8 7 -14 2 -14 -6 0 -8 -11 -5 -25 3 -16 0 -25 -9 -25 -8 0
-5 -5 6 -14 18 -13 17 -14 -14 -21 -23 -5 -29 -10 -21 -15 7 -4 10 -15 7 -24
-4 -9 -1 -16 6 -16 8 0 7 -4 -3 -10 -13 -9 -13 -11 0 -20 13 -8 12 -10 -3 -10
-14 0 -17 -5 -12 -20 5 -16 2 -20 -17 -20 -13 0 -18 -4 -13 -8 14 -10 17 -62
3 -62 -7 0 -6 -5 2 -15 7 -9 8 -15 2 -15 -15 0 -8 -33 8 -38 7 -3 -5 -13 -26
-23 -22 -10 -33 -18 -26 -19 7 0 10 -4 7 -10 -3 -5 -1 -10 4 -10 6 0 10 -11 9
-25 -1 -14 -7 -25 -13 -25 -5 0 -3 -5 5 -10 12 -8 13 -11 1 -19 -11 -7 -11 -9
0 -13 18 -7 7 -19 -18 -21 -11 0 -19 -8 -19 -18 0 -10 5 -15 10 -12 6 4 6 -1
2 -13 -13 -33 -15 -54 -5 -54 16 0 10 -18 -8 -23 -17 -4 -17 -5 0 -6 21 -1 23
-21 1 -21 -8 0 -12 -4 -9 -10 3 -5 -1 -10 -11 -10 -12 0 -14 -4 -7 -13 12 -15
13 -47 1 -47 -9 0 -6 -29 5 -47 4 -6 2 -15 -4 -19 -8 -5 -9 -3 -4 6 5 8 3 11
-4 9 -7 -3 -12 -8 -11 -13 1 -5 -4 -12 -11 -17 -18 -11 -20 -39 -3 -39 9 0 13
-4 10 -9 -3 -5 225 -9 535 -9 383 1 537 4 530 11 -19 19 -12 24 31 23 43 -2
80 19 70 39 -3 6 1 5 8 -2 9 -9 19 -9 33 -2 13 8 17 8 13 1 -4 -6 2 -10 13 -9
11 0 17 5 15 9 -3 4 0 8 6 8 6 0 8 5 5 10 -4 6 6 10 23 10 29 0 58 21 45 33
-3 4 1 7 10 7 8 0 17 5 19 10 2 6 17 12 33 13 23 2 29 7 27 21 -3 14 1 17 13
12 13 -4 16 -2 11 9 -3 10 1 15 13 15 11 0 21 9 24 21 4 15 11 20 21 16 9 -4
16 -2 16 3 0 6 -4 10 -10 10 -5 0 2 11 16 25 14 14 29 23 34 20 5 -3 12 4 15
16 5 14 2 25 -6 30 -10 6 -8 9 8 9 12 0 25 4 28 10 3 6 -1 7 -12 4 -10 -3 -2
4 17 16 19 12 27 19 17 16 -11 -3 -15 -2 -12 4 3 6 13 10 21 10 8 0 12 5 9 10
-3 6 -2 10 3 10 5 0 9 8 9 18 0 34 4 40 33 52 28 12 29 14 15 30 -20 22 -19
25 6 27 29 2 37 12 19 23 -10 7 -11 10 -2 10 6 0 12 7 12 15 0 9 9 15 23 15
18 0 19 2 7 10 -13 9 -13 10 0 10 12 0 13 2 1 9 -11 7 -11 9 0 14 10 4 10 6 2
6 -16 1 -17 31 -2 31 5 0 7 5 4 10 -6 9 8 14 28 11 4 0 7 4 7 9 0 6 -6 10 -12
11 -7 0 -5 4 6 8 17 7 17 8 2 23 -15 16 -15 18 1 27 10 6 13 11 6 11 -16 0
-12 38 5 45 7 2 10 0 7 -5 -3 -6 1 -7 10 -4 12 5 13 9 4 20 -9 11 -8 14 2 15
8 0 5 4 -6 9 -11 5 -14 9 -7 9 10 1 10 6 2 21 -8 15 -8 20 1 20 8 0 8 4 2 13
-13 16 -13 47 1 47 6 0 5 5 -2 12 -17 17 -15 28 4 28 15 0 15 2 0 25 -12 18
-13 25 -4 25 9 0 8 3 -2 10 -13 8 -12 10 4 10 20 0 20 0 0 15 -19 14 -19 14 1
15 20 1 20 1 1 15 -14 11 -16 15 -5 15 12 0 12 2 -1 10 -13 9 -13 10 0 10 13
0 13 1 0 10 -13 9 -13 10 0 11 10 0 8 3 -5 9 -18 8 -18 9 5 9 19 1 22 3 11 10
-11 7 -12 13 -3 23 9 11 9 17 0 26 -18 18 -17 52 1 53 11 0 12 2 3 6 -6 2 -10
8 -7 13 3 4 -7 11 -23 15 -25 7 -25 8 -7 15 19 8 19 9 1 9 -20 1 -20 1 0 16
17 13 17 14 2 15 -9 0 -20 5 -24 12 -4 6 -3 8 3 5 6 -4 16 -1 22 7 9 11 8 15
-5 20 -10 4 -14 12 -10 22 5 14 4 14 -7 5 -12 -9 -13 -7 -9 14 2 15 0 25 -7
25 -7 0 -9 5 -6 10 3 6 -4 14 -17 19 -13 6 -17 10 -10 10 14 1 17 31 2 31 -6
0 -9 3 -9 8 3 18 -2 26 -10 14 -6 -10 -11 -5 -21 17 -7 17 -20 31 -29 31 -11
0 -12 3 -4 8 8 5 8 12 -3 26 -8 11 -14 17 -14 13 0 -4 -11 3 -23 15 -13 13
-21 25 -17 28 4 3 2 11 -6 18 -8 7 -14 9 -14 4 0 -14 -36 -7 -54 10 -19 19
-21 33 -4 22 7 -4 8 -3 4 4 -4 7 -14 12 -22 12 -8 0 -14 4 -14 9 0 6 -9 8 -19
6 -11 -2 -26 4 -33 13 -11 13 -11 14 1 7 8 -5 12 -4 8 1 -3 6 -28 10 -56 9
-27 -1 -48 2 -45 6 6 10 -24 32 -35 25 -5 -3 -11 -2 -13 4 -2 6 -9 2 -16 -7z
m-557 -233 c-5 -8 21 -7 72 1 4 1 10 0 13 -1 19 -7 50 -5 50 4 0 7 3 7 8 1 8
-12 74 -13 83 -2 6 9 33 -13 43 -35 5 -10 7 -10 12 0 4 10 9 10 19 2 10 -8 19
-8 34 -1 13 7 22 8 26 1 9 -15 27 -12 19 3 -5 9 -4 9 6 0 9 -8 19 -9 31 -3 11
7 20 7 24 0 3 -5 11 -10 16 -10 6 0 7 6 3 13 -6 9 -5 9 7 0 8 -6 19 -12 24
-12 6 0 17 -7 26 -14 8 -8 23 -13 32 -11 10 1 24 -7 32 -19 9 -12 19 -21 23
-20 13 5 42 -8 42 -18 0 -6 5 -7 12 -3 6 4 8 3 5 -3 -4 -6 3 -19 15 -29 12
-11 18 -13 14 -7 -5 9 -2 11 8 7 18 -7 22 -24 6 -24 -5 0 -10 -4 -10 -9 0 -6
10 -8 21 -6 12 3 19 2 15 -2 -3 -3 -1 -12 5 -20 9 -10 8 -13 -5 -13 -14 0 -15
-2 -4 -14 7 -8 18 -13 23 -13 6 1 9 -4 7 -10 -1 -7 4 -13 10 -13 8 0 5 -7 -6
-15 -18 -14 -18 -15 -2 -15 9 0 14 -4 11 -10 -3 -5 0 -10 7 -11 7 0 4 -4 -7
-9 -16 -7 -16 -9 -4 -9 20 -1 33 -28 16 -35 -7 -2 -4 -5 6 -5 19 -1 24 -21 5
-21 -8 0 -9 -3 -3 -8 17 -12 16 -32 -3 -32 -14 0 -15 -2 -2 -10 8 -5 11 -10 5
-10 -5 0 -3 -5 5 -10 11 -7 11 -10 2 -10 -7 0 -11 -4 -8 -9 4 -5 0 -12 -6 -14
-8 -3 -5 -6 6 -6 15 -1 16 -4 7 -15 -9 -11 -9 -15 1 -20 10 -5 10 -7 0 -12 -6
-3 -10 -10 -6 -15 3 -5 -1 -9 -8 -9 -8 0 -6 -5 5 -11 21 -12 22 -26 1 -47 -15
-15 -15 -16 2 -23 11 -4 13 -8 6 -8 -7 -1 -10 -5 -7 -11 3 -5 1 -10 -6 -10 -8
0 -7 -5 2 -17 11 -13 11 -17 2 -20 -7 -3 -13 -11 -13 -19 0 -9 -4 -13 -8 -10
-5 3 -9 -1 -9 -9 0 -8 4 -15 8 -15 8 0 2 -50 -7 -59 -2 -2 1 -10 7 -18 9 -10
7 -13 -9 -13 -12 0 -24 -5 -28 -12 -5 -7 -3 -8 7 -3 11 7 12 6 3 -6 -6 -8 -10
-22 -9 -31 2 -10 -1 -19 -6 -19 -8 -1 -16 -3 -36 -8 -5 -2 1 -6 12 -11 15 -6
16 -9 4 -9 -9 -1 -16 -8 -16 -16 0 -8 7 -15 16 -16 12 0 11 -3 -4 -9 -12 -5
-14 -9 -6 -9 10 -1 7 -7 -7 -20 -12 -10 -19 -21 -17 -25 3 -3 2 -4 -1 -1 -9 6
-44 -14 -44 -25 0 -6 8 -10 18 -11 11 0 7 -4 -10 -11 -16 -5 -28 -14 -28 -19
0 -6 6 -7 13 -3 8 5 8 2 -2 -9 -7 -9 -23 -17 -35 -17 -17 0 -18 -2 -6 -10 12
-8 12 -10 -5 -10 -17 0 -17 -2 -5 -10 13 -9 13 -10 0 -11 -10 0 -9 -3 5 -9 19
-9 19 -9 -2 -16 -13 -3 -23 -10 -23 -15 0 -6 -10 -14 -22 -19 -13 -5 -17 -9
-10 -9 7 -1 11 -5 8 -10 -3 -5 -19 -8 -36 -7 -16 1 -30 -2 -30 -7 0 -4 -5 -5
-12 -1 -7 4 -8 3 -4 -5 4 -6 13 -8 19 -5 7 4 3 -2 -8 -13 -11 -11 -21 -16 -23
-12 -2 5 -8 9 -13 9 -6 0 -7 -5 -4 -10 7 -11 -35 -31 -49 -22 -5 3 -6 0 -2 -6
9 -15 -2 -20 -64 -27 -49 -5 -81 -15 -52 -15 7 0 12 -5 12 -11 0 -5 -4 -7 -10
-4 -5 3 -19 1 -30 -5 -16 -8 -25 -8 -35 0 -9 8 -15 8 -20 0 -3 -6 -12 -7 -18
-3 -18 11 -61 10 -69 -2 -5 -7 -8 -7 -8 0 0 11 -65 13 -76 3 -3 -4 -12 -4 -20
-1 -7 2 -29 -1 -49 -7 -20 -7 -54 -13 -75 -15 -22 -2 -44 -7 -51 -11 -7 -4 -9
-3 -6 3 8 13 -86 11 -95 -2 -5 -6 -8 -6 -8 2 0 6 -8 9 -18 7 -25 -7 -55 45
-39 67 7 9 19 14 27 11 13 -5 13 -3 0 13 -9 11 -10 16 -2 11 6 -4 12 -2 12 3
0 6 -6 11 -12 11 -7 0 -5 5 5 11 10 6 14 15 10 22 -12 20 -12 37 0 37 7 0 5 5
-3 10 -10 6 -11 10 -2 10 6 0 12 5 12 11 0 5 -4 8 -8 5 -5 -3 -9 1 -9 8 0 9 7
12 15 8 11 -4 14 -1 9 11 -4 10 -1 17 6 17 9 0 8 3 -1 9 -11 6 -10 10 5 15 17
7 17 8 -1 18 -19 10 -19 11 -1 24 16 12 16 14 2 20 -13 5 -14 9 -4 25 6 10 18
19 26 19 8 0 11 7 8 20 -3 11 0 20 6 20 7 0 3 6 -7 12 -19 11 -19 11 -1 24 12
9 14 14 6 14 -11 0 -11 3 -1 15 10 12 10 15 -1 16 -9 0 -10 2 -3 5 7 3 9 15 6
27 -3 12 -1 19 3 15 5 -4 14 -3 22 3 10 9 10 15 2 25 -9 11 -7 14 7 14 16 0
17 2 4 10 -8 5 -11 10 -6 10 5 0 3 6 -3 14 -9 11 -9 15 1 18 10 4 10 8 -1 22
-8 9 -10 16 -5 15 21 -4 35 2 29 11 -3 6 0 10 7 10 8 1 7 6 -5 14 -18 14 -18
15 0 25 10 6 13 11 7 11 -13 0 -14 31 -1 48 5 6 6 12 1 12 -5 0 -1 5 9 11 9 5
17 19 17 29 0 11 5 20 11 20 5 0 7 5 4 10 -4 6 -11 8 -16 5 -16 -11 -9 7 9 21
16 13 16 13 -3 14 -17 0 -17 2 -5 10 8 5 10 10 4 10 -14 0 -14 30 0 30 6 0 4
5 -4 10 -13 8 -12 10 5 11 11 1 27 1 35 0 9 -1 11 1 5 6 -14 11 -17 33 -5 33
5 0 10 5 10 11 0 5 -4 8 -9 4 -5 -3 -12 -1 -16 5 -3 5 0 10 7 10 9 0 9 3 -2
10 -13 9 -13 10 0 10 13 0 13 1 0 10 -13 8 -13 10 1 10 24 0 19 30 -5 31 -17
0 -16 2 7 11 15 5 25 14 21 19 -3 5 2 9 10 9 22 0 20 20 -1 20 -17 1 -17 1 0
14 9 7 17 16 17 20 0 3 -8 6 -17 6 -15 0 -16 2 -3 10 8 5 11 10 7 10 -5 0 -1
7 7 16 9 8 20 13 25 9 11 -6 9 35 -3 53 -4 7 -2 12 4 12 12 0 10 37 -3 58 -5
7 -2 14 7 18 9 3 13 11 10 16 -5 7 5 9 25 6 17 -2 31 -1 31 4 0 4 5 8 11 8 5
0 8 -4 4 -10z"/>
</g>
</svg>
